<svg xmlns="http://www.w3.org/2000/svg" version="1.1" xmlns:xlink="http://www.w3.org/1999/xlink" width="200" height="200"><svg width="200" height="200" viewBox="0 0 200 200" fill="none" xmlns="http://www.w3.org/2000/svg">
<rect x="87" y="17" width="51" height="75" rx="15" fill="#94F590"></rect>
<circle cx="121.5" cy="54.5" r="4.5" fill="white"></circle>
<circle cx="121.5" cy="75.5" r="4.5" fill="white"></circle>
<circle cx="121.5" cy="33.5" r="4.5" fill="white"></circle>
<rect x="191.452" y="110.5" width="75" height="75" rx="15" transform="rotate(120 191.452 110.5)" fill="#60C9FC"></rect>
<circle cx="140.226" cy="124.226" r="4.5" transform="rotate(120 140.226 124.226)" fill="white"></circle>
<circle cx="168.912" cy="116.539" r="4.5" transform="rotate(120 168.912 116.539)" fill="white"></circle>
<circle cx="111.539" cy="131.912" r="4.5" transform="rotate(120 111.539 131.912)" fill="white"></circle>
<rect x="46.5" y="175.452" width="75" height="75" rx="15" transform="rotate(-120 46.5 175.452)" fill="#FC8360"></rect>
<circle cx="60.226" cy="124.226" r="4.5" transform="rotate(-120 60.226 124.226)" fill="white"></circle>
<circle cx="52.5394" cy="152.912" r="4.5" transform="rotate(-120 52.5394 152.912)" fill="white"></circle>
<circle cx="67.9125" cy="95.5394" r="4.5" transform="rotate(-120 67.9125 95.5394)" fill="white"></circle>
<circle cx="31.5394" cy="116.539" r="4.5" transform="rotate(-120 31.5394 116.539)" fill="white"></circle>
<circle cx="88.9125" cy="131.912" r="4.5" transform="rotate(-120 88.9125 131.912)" fill="white"></circle>
<rect x="63" y="17" width="52" height="75" rx="15" fill="#94F590"></rect>
<circle cx="79.5" cy="54.5" r="4.5" fill="white"></circle>
<circle cx="79.5" cy="33.5" r="4.5" fill="white"></circle>
<circle cx="79.5" cy="75.5" r="4.5" fill="white"></circle>
</svg><style>@media (prefers-color-scheme: light) { :root { filter: none; } }
@media (prefers-color-scheme: dark) { :root { filter: none; } }
</style></svg>